PathFileType	4	(X/Y/Z)	G:\マイドライブ\biomec\experimentalData\240725\CJ2.trc
DataRate	CameraRate	NumFrames	NumMarkers	Units	OrigDataRate	OrigDataStartFrame	OrigNumFrames
200.00	200.00	      6	52	mm	200.00	416	      1662
Frame#	Time	handR			wrRI			wrRO			elbRI			elbRO			shRF			shRU			shRB			handL			wrLI			wrLO			elbLI			elbLO			shLF			shLU			shLB			toeR			baRI			baRO			heelR			anRI			anRO			knRI			knRO			troR			toeL			baLI			baLO			heelL			anLI			anLO			knLI			knLO			troL			head			earR			earL			clav			c7			ribR			ribL			xiph			ASISR			ASISL			PSISR			PSISL			t8			t11			L1			L3			LS			COX			
		X1	Y1	Z1	X2	Y2	Z2	X3	Y3	Z3	X4	Y4	Z4	X5	Y5	Z5	X6	Y6	Z6	X7	Y7	Z7	X8	Y8	Z8	X9	Y9	Z9	X10	Y10	Z10	X11	Y11	Z11	X12	Y12	Z12	X13	Y13	Z13	X14	Y14	Z14	X15	Y15	Z15	X16	Y16	Z16	X17	Y17	Z17	X18	Y18	Z18	X19	Y19	Z19	X20	Y20	Z20	X21	Y21	Z21	X22	Y22	Z22	X23	Y23	Z23	X24	Y24	Z24	X25	Y25	Z25	X26	Y26	Z26	X27	Y27	Z27	X28	Y28	Z28	X29	Y29	Z29	X30	Y30	Z30	X31	Y31	Z31	X32	Y32	Z32	X33	Y33	Z33	X34	Y34	Z34	X35	Y35	Z35	X36	Y36	Z36	X37	Y37	Z37	X38	Y38	Z38	X39	Y39	Z39	X40	Y40	Z40	X41	Y41	Z41	X42	Y42	Z42	X43	Y43	Z43	X44	Y44	Z44	X45	Y45	Z45	X46	Y46	Z46	X47	Y47	Z47	X48	Y48	Z48	X49	Y49	Z49	X50	Y50	Z50	X51	Y51	Z51	X52	Y52	Z52	

416	2.075	538.41785	782.43579	1061.39429	470.02109	735.99133	1054.72925	463.20538	792.42004	1102.31897	325.52881	718.46387	1258.82861	352.38171	642.20514	1254.16846	629.72418	727.49390	1380.23218	583.92590	720.45129	1426.98560	524.09717	741.82257	1421.07813	621.58575	1090.51111	1072.62561	585.41986	1166.57825	1060.11401	551.35651	1116.84033	1108.02771	494.26559	1262.46497	1260.14697	565.73206	1305.43762	1254.44714	703.06006	1054.92200	1387.73499	669.43896	1092.46826	1434.96362	595.20660	1092.17883	1414.93787	710.91357	716.99969	48.56123	633.89740	773.68823	35.47616	597.56030	651.74744	39.51410	427.14227	761.95337	40.50908	518.88501	791.07056	109.41984	489.96945	699.72205	107.61089	580.19342	846.99011	463.10648	577.84930	741.37079	479.37311	523.53613	788.29034	869.13031	644.52136	1310.03247	61.60972	567.03217	1271.40442	70.79457	566.63800	1374.63538	117.74582	381.97247	1329.26392	169.34358	490.74081	1247.67480	195.64417	480.92911	1340.85596	213.85039	632.48871	1104.01074	492.96069	662.95929	1206.77722	526.67749	586.30475	1130.97388	894.58313	824.25470	860.72156	1628.45752	732.35596	793.61755	1478.04517	781.83636	944.14734	1464.60706	693.01495	894.82422	1361.04138	609.77216	914.03864	1478.10657	590.54498	821.71094	1088.57434	632.42090	1040.06335	1100.17834	681.39655	904.98456	1204.62244	602.66187	834.17700	950.04095	634.06543	1050.43604	985.81525	444.50677	906.39496	1005.80426	466.92352	1023.87695	1022.75366	477.21616	947.87054	1287.75964	465.07568	953.37720	1157.18042	467.93048	957.94470	1097.00696	462.15860	959.01715	1046.95227	444.20282	968.43604	1008.80212	410.39667	987.96198	907.61139	
417	2.080	538.81195	779.91901	1060.91553	471.04022	732.95770	1053.95093	463.99997	788.53223	1102.11658	326.24692	712.56854	1257.73584	354.46521	636.64282	1252.44922	630.37292	732.86792	1378.16809	584.49939	716.99097	1426.23853	524.49109	738.15259	1420.42151	620.51703	1087.87048	1073.41553	584.57635	1164.51831	1061.03516	550.40460	1114.39099	1108.82825	493.45053	1260.27332	1261.01831	565.34570	1302.96289	1255.06641	701.82141	1052.23584	1388.26697	668.23633	1089.54749	1435.91370	594.06140	1089.25781	1415.65515	710.89343	717.02454	48.62018	633.83917	773.67206	35.51199	597.56860	651.74609	39.49548	427.10214	761.89783	40.48354	518.77612	790.83160	109.50399	489.90387	699.48639	107.51162	579.24969	845.78400	463.21014	577.07660	740.26202	479.27664	523.14905	786.03931	869.55267	642.12231	1300.12976	60.61577	564.94006	1261.94177	70.30903	564.93152	1365.90698	115.71118	380.00177	1322.20630	168.62260	489.02121	1240.64990	195.79494	479.41101	1334.14990	212.72522	632.36139	1100.81177	493.84897	662.12457	1204.23132	526.79907	584.58789	1129.28406	895.10675	823.44666	857.73975	1628.78882	732.33600	790.84052	1478.10559	781.14624	941.74237	1465.15576	692.44733	892.34698	1361.32556	609.01056	910.93481	1478.32361	590.25763	819.75775	1088.60669	631.59015	1038.03052	1101.04700	680.94232	902.90063	1204.91882	602.44659	832.21582	950.38696	632.30396	1048.10327	986.61230	444.03470	903.77466	1006.20416	465.83609	1021.35052	1023.30933	476.57068	944.59027	1288.34290	464.40335	950.53912	1157.78540	467.31790	955.28601	1097.36951	461.47476	956.41626	1047.33521	443.31198	965.74854	1009.33130	409.30237	985.12793	908.06860	
418	2.085	539.38153	777.26178	1060.21497	472.03253	730.15216	1052.60083	464.05737	786.08630	1101.03821	327.64026	706.86218	1256.29517	356.33075	631.32471	1250.72437	630.87097	730.08221	1377.44031	585.09650	713.74255	1425.63916	524.93457	734.36340	1419.65881	619.91620	1085.69910	1074.22253	583.67719	1161.94263	1061.58875	549.41583	1112.14294	1109.63232	491.45227	1258.21826	1262.34570	564.47205	1300.38110	1256.24951	700.64148	1049.71326	1389.04736	667.55554	1086.34009	1436.39319	592.62604	1086.37354	1416.87012	710.87677	717.04285	48.67726	633.70557	773.68903	35.58001	597.55389	651.75897	39.46180	427.07544	761.88458	40.43253	518.72534	790.67291	109.56670	489.86139	699.23389	107.36049	578.07098	844.90814	463.56335	576.23004	739.20959	479.36697	522.95081	783.91272	869.70929	640.23419	1290.19641	59.38869	563.21381	1250.83362	70.95309	563.07532	1357.64514	113.25110	378.25302	1315.01636	167.70520	487.15594	1234.00049	196.09923	477.68948	1327.59009	211.54581	632.68665	1097.37402	494.62799	661.20685	1201.66382	526.89783	583.13251	1127.32214	895.65283	823.10889	854.96509	1629.22095	732.22137	788.05530	1478.23523	780.35522	939.20892	1465.86768	691.89105	889.76801	1361.70703	608.39771	907.57623	1478.70825	589.95770	817.71362	1088.79297	630.32294	1036.00562	1101.44214	680.40576	900.89001	1205.23499	602.18695	830.13678	950.77283	631.24829	1046.61792	987.05078	443.36871	901.22205	1006.60272	464.67624	1018.86230	1023.89954	475.89447	941.64966	1288.72693	463.92758	947.81927	1158.03418	466.59387	952.53119	1097.86780	460.46912	953.88629	1047.83508	442.12378	963.20697	1009.97809	408.11340	982.40424	908.56696	
419	2.090	540.04663	774.81000	1059.73669	473.10663	727.37823	1051.61609	464.94608	781.99969	1100.68140	328.42197	701.13257	1254.84229	358.58658	626.23322	1249.02917	631.22205	727.65912	1376.82813	585.57233	710.60583	1424.90979	525.08960	730.67725	1418.97900	618.89606	1083.38916	1074.79395	582.85828	1159.70398	1062.05591	548.49988	1109.81152	1110.12646	490.85532	1255.66125	1262.95447	563.80316	1298.07544	1256.93958	699.91132	1047.18298	1389.92615	665.95325	1083.93945	1437.52991	591.89240	1083.42822	1417.21179	710.86127	717.07025	48.71996	633.41760	773.60480	35.62764	597.53510	651.77869	39.46553	427.04620	761.83136	40.39237	518.64490	790.51489	109.63944	489.81287	699.00201	107.22185	577.10602	843.96039	463.92004	575.33752	738.14191	479.51425	522.71631	782.05249	869.90405	638.40662	1280.15662	58.43087	560.65900	1243.20972	70.31832	561.57800	1348.83728	111.07935	376.84598	1308.32190	166.61224	485.57236	1227.33875	196.11850	476.09476	1321.24231	210.09911	632.41699	1094.35278	495.41641	660.30273	1199.04834	526.77875	581.60364	1125.31470	896.02655	822.70367	852.15479	1629.49097	732.05243	785.34332	1478.32373	779.62079	936.73029	1466.34131	691.30505	887.57275	1361.83936	608.18298	904.60272	1478.72339	589.73907	815.77905	1088.84082	629.48413	1034.00366	1102.23022	679.86121	898.86707	1205.56458	601.84509	828.28912	951.15399	629.73553	1044.76855	987.43842	442.79242	898.56213	1007.03528	463.59912	1016.35529	1024.35242	475.28931	938.72559	1289.16284	461.82428	945.07501	1158.63831	465.78601	949.99487	1098.27332	459.76019	951.32294	1048.30347	441.43927	960.59943	1010.38007	407.12274	979.65216	908.95752	
420	2.095	540.50488	774.36023	1058.70190	474.09454	724.68561	1050.42383	464.93890	780.22064	1099.53149	329.72519	695.61877	1253.33142	360.55048	621.02423	1247.27686	631.60278	725.17603	1376.43188	585.98700	707.48999	1424.34839	525.37335	727.20093	1418.34082	617.76025	1081.38635	1075.33704	582.05170	1157.45398	1062.71680	547.62683	1107.64233	1110.56372	490.23624	1253.40576	1263.43433	562.98718	1295.64001	1257.54016	698.38531	1044.65796	1390.68811	664.87122	1081.32483	1438.16309	590.79303	1080.66235	1417.85889	710.81317	717.11560	48.77970	633.08771	773.52942	35.70186	597.52527	651.78528	39.46139	427.01587	761.80682	40.38805	518.58093	790.36646	109.69353	489.75940	698.77844	107.07375	576.17450	842.61127	464.13531	574.67737	737.17371	479.65784	522.45386	779.85101	870.12347	636.52142	1270.38464	57.54877	558.52936	1233.87280	70.13153	560.06934	1340.67847	108.93139	375.20370	1301.57410	165.54562	484.01303	1220.79443	196.21617	474.81812	1314.95630	208.82121	633.91162	1090.66699	495.50412	659.64667	1196.29907	526.62921	579.84381	1123.65601	896.50745	822.05145	849.54327	1629.91516	731.87256	782.73169	1478.39001	778.85010	934.44781	1466.88123	690.88806	885.26617	1362.14941	607.31110	901.35266	1479.38538	589.58527	813.97076	1088.85510	628.58191	1032.12036	1103.02441	679.23743	897.06769	1205.85889	601.37659	826.28821	951.38873	628.83228	1042.74585	988.20355	442.12622	896.13702	1007.47046	462.36163	1013.92291	1024.89099	474.67529	935.80042	1289.52771	461.30627	942.40717	1158.94299	464.96207	947.46246	1098.64978	458.91824	948.69061	1048.71729	440.65768	957.93372	1010.74493	406.05249	976.97858	909.23438	
421	2.100	541.41919	772.07227	1057.70508	475.21942	722.05084	1049.31409	465.27573	777.56476	1098.65320	330.75119	690.33868	1251.72937	362.79086	616.23706	1245.31775	631.94006	722.79407	1375.90283	586.41302	704.47223	1423.73315	525.66882	723.77130	1417.55994	617.12549	1079.28064	1075.70496	581.21405	1155.08167	1063.10449	546.78888	1105.38416	1110.98694	489.25418	1251.21606	1263.84473	562.01990	1293.42957	1258.14612	697.75787	1042.44958	1391.20959	663.65344	1079.00537	1438.82227	589.61359	1078.15540	1418.41968	710.84363	717.14655	48.87910	633.69293	773.69794	35.67183	597.53979	651.80139	39.46327	427.01398	761.78595	40.33768	518.44800	790.22650	109.73046	489.70206	698.54065	106.90417	575.12396	841.96307	464.39307	573.98651	736.22070	479.79224	522.20911	777.57361	870.43170	635.00085	1260.67664	56.70105	556.75934	1225.16443	69.98054	558.92664	1331.91980	106.70161	373.97318	1295.36731	164.33348	482.47699	1214.18188	196.31653	473.32672	1308.79272	207.41942	633.36157	1087.75977	496.19107	658.55536	1193.56116	526.44165	578.41425	1121.67749	896.90198	821.57404	846.91748	1630.17627	731.76758	780.33472	1478.41602	778.17297	932.23761	1467.56018	690.33704	882.89374	1362.30310	606.69031	898.43781	1479.68030	589.29150	812.11938	1088.80652	627.71735	1030.18896	1103.36536	678.47803	895.33691	1206.19507	601.31079	824.38727	951.70306	627.91614	1042.37781	988.53235	441.55453	893.59058	1007.91315	461.23813	1011.62775	1025.36426	473.79062	933.04742	1290.02979	460.42313	939.79346	1159.42700	464.31589	944.87488	1099.03455	458.09946	946.42316	1049.23730	439.73083	955.42975	1011.20605	404.92795	974.45660	909.66022	
